<svg xmlns="http://www.w3.org/2000/svg" xmlns:xlink="http://www.w3.org/1999/xlink" version="1.1" width="256" height="256" viewBox="0 0 256 256" xml:space="preserve">

<defs>
</defs>
<g style="stroke: none; stroke-width: 0; stroke-dasharray: none; stroke-linecap: butt; stroke-linejoin: miter; stroke-miterlimit: 10; fill: none; fill-rule: nonzero; opacity: 1;" transform="translate(1.4065934065934016 1.4065934065934016) scale(2.81 2.81)" >
	<path d="M 76.009 51.413 c -4.905 -4.905 -12.889 -4.907 -17.796 0 L 47.006 62.62 l 0 0 L 26.138 83.489 c -3.347 3.345 -8.792 3.347 -12.14 0 c -1.621 -1.622 -2.514 -3.777 -2.514 -6.07 s 0.893 -4.448 2.514 -6.069 l 5.204 -5.204 c 0.781 -0.781 0.781 -2.047 0 -2.828 s -2.048 -0.781 -2.828 0 l -5.204 5.204 c -2.377 2.376 -3.686 5.536 -3.686 8.897 s 1.309 6.521 3.686 8.898 c 2.453 2.453 5.675 3.68 8.898 3.68 c 3.222 0 6.445 -1.227 8.898 -3.68 l 20.915 -20.916 l 11.16 -11.16 c 3.348 -3.346 8.794 -3.346 12.14 0 c 1.621 1.622 2.515 3.777 2.515 6.07 s -0.894 4.448 -2.515 6.069 L 55.179 84.384 c -0.781 0.781 -0.781 2.047 0 2.828 c 0.391 0.391 0.902 0.586 1.414 0.586 s 1.023 -0.195 1.414 -0.586 l 18.002 -18.003 c 2.377 -2.376 3.687 -5.536 3.687 -8.897 S 78.386 53.79 76.009 51.413 z" style="stroke: none; stroke-width: 1; stroke-dasharray: none; stroke-linecap: butt; stroke-linejoin: miter; stroke-miterlimit: 10; fill: rgb(119,119,119); fill-rule: nonzero; opacity: 1;" transform=" matrix(1 0 0 1 0 0) " stroke-linecap="round" />
	<polyline points="65.81,31.21 22.29,69.23 13.29,60.23 51.31,16.71 " style="stroke: none; stroke-width: 1; stroke-dasharray: none; stroke-linecap: butt; stroke-linejoin: miter; stroke-miterlimit: 10; fill: rgb(233,166,45); fill-rule: nonzero; opacity: 1;" transform="  matrix(1 0 0 1 0 0) "/>
	<circle cx="66.888" cy="15.628" r="15.628" style="stroke: none; stroke-width: 1; stroke-dasharray: none; stroke-linecap: butt; stroke-linejoin: miter; stroke-miterlimit: 10; fill: rgb(119,119,119); fill-rule: nonzero; opacity: 1;" transform="  matrix(1 0 0 1 0 0) "/>
	<path d="M 50.734 35.051 c -0.512 0 -1.023 -0.195 -1.414 -0.586 l -1.267 -1.267 c -0.781 -0.781 -0.781 -2.048 0 -2.829 c 0.781 -0.78 2.047 -0.781 2.828 0 l 1.267 1.267 c 0.781 0.781 0.781 2.048 0 2.829 C 51.758 34.856 51.246 35.051 50.734 35.051 z" style="stroke: none; stroke-width: 1; stroke-dasharray: none; stroke-linecap: butt; stroke-linejoin: miter; stroke-miterlimit: 10; fill: rgb(188,127,38); fill-rule: nonzero; opacity: 1;" transform=" matrix(1 0 0 1 0 0) " stroke-linecap="round" />
	<path d="M 31.756 62.961 c -0.512 0 -1.023 -0.195 -1.414 -0.586 L 20.144 52.178 c -0.781 -0.781 -0.781 -2.047 0 -2.828 c 0.78 -0.781 2.047 -0.781 2.828 0 L 33.17 59.547 c 0.781 0.781 0.781 2.047 0 2.828 C 32.78 62.766 32.268 62.961 31.756 62.961 z" style="stroke: none; stroke-width: 1; stroke-dasharray: none; stroke-linecap: butt; stroke-linejoin: miter; stroke-miterlimit: 10; fill: rgb(188,127,38); fill-rule: nonzero; opacity: 1;" transform=" matrix(1 0 0 1 0 0) " stroke-linecap="round" />
	<path d="M 77.938 28.682 c -0.512 0 -1.023 -0.195 -1.414 -0.586 L 54.423 5.995 c -0.781 -0.781 -0.781 -2.047 0 -2.828 c 0.781 -0.781 2.047 -0.781 2.828 0 l 22.102 22.102 c 0.781 0.781 0.781 2.047 0 2.828 C 78.962 28.487 78.45 28.682 77.938 28.682 z" style="stroke: none; stroke-width: 1; stroke-dasharray: none; stroke-linecap: butt; stroke-linejoin: miter; stroke-miterlimit: 10; fill: rgb(96,96,96); fill-rule: nonzero; opacity: 1;" transform=" matrix(1 0 0 1 0 0) " stroke-linecap="round" />
</g>
</svg>